<svg width="1438" height="909" viewBox="0 0 1438 909" fill="none" xmlns="http://www.w3.org/2000/svg">
<mask id="mask0_465_5721" style="mask-type:luminance" maskUnits="userSpaceOnUse" x="0" y="351" width="1443" height="558">
<path d="M1442.4 577.86V702.94C1381.11 699.65 1236.15 696.88 1146.61 712.04C1034.69 730.99 1003.14 761.81 1005.66 819.92C1007.54 863.06 961.75 889.66 933.62 899.53C929.88 900.84 927.4 904.4 927.4 908.36H343.4V908.27C343.4 898.62 340.41 889.23 334.99 881.24C316.36 853.77 343.63 776.5 291.58 695.78C254.52 638.29 272.36 647.08 198.25 601.53C138.97 565.09 42.9798 723.33 2.39983 731.23C2.39983 593.16 -25.1302 393.18 106.43 351.32L259.62 379.19C260.02 379.19 494.14 451.49 494.51 451.62C515.96 458.56 534.35 599.57 665.5 605.93C705.08 607.85 758.02 590.18 816.21 590.18C1021.49 590.18 957.89 522.38 1090.89 559.88C1197.29 589.88 1369.56 584.38 1442.39 577.88L1442.4 577.86Z" fill="white"/>
</mask>
<g mask="url(#mask0_465_5721)">
<g opacity="0.1">
<path d="M74.0297 171.36H70.9097V934.19H74.0297V171.36Z" fill="#4A71F0"/>
<path d="M142.52 171.36H139.4V934.19H142.52V171.36Z" fill="#4A71F0"/>
<path d="M211.02 171.36H207.9V934.19H211.02V171.36Z" fill="#4A71F0"/>
<path d="M279.52 171.36H276.4V934.19H279.52V171.36Z" fill="#4A71F0"/>
<path d="M348.02 171.36H344.9V934.19H348.02V171.36Z" fill="#4A71F0"/>
<path d="M416.53 171.36H413.41V934.19H416.53V171.36Z" fill="#4A71F0"/>
<path d="M485.02 171.36H481.9V934.19H485.02V171.36Z" fill="#4A71F0"/>
<path d="M553.53 171.36H550.41V934.19H553.53V171.36Z" fill="#4A71F0"/>
<path d="M622.02 171.36H618.9V934.19H622.02V171.36Z" fill="#4A71F0"/>
<path d="M690.53 171.36H687.41V934.19H690.53V171.36Z" fill="#4A71F0"/>
<path d="M759.03 171.36H755.91V934.19H759.03V171.36Z" fill="#4A71F0"/>
<path d="M827.53 171.36H824.41V934.19H827.53V171.36Z" fill="#4A71F0"/>
<path d="M896.03 171.36H892.91V934.19H896.03V171.36Z" fill="#4A71F0"/>
<path d="M964.53 171.36H961.4V934.19H964.53V171.36Z" fill="#4A71F0"/>
<path d="M1033.03 171.36H1029.91V934.19H1033.03V171.36Z" fill="#4A71F0"/>
<path d="M1101.54 171.36H1098.41V934.19H1101.54V171.36Z" fill="#4A71F0"/>
<path d="M1170.03 171.36H1166.91V934.19H1170.03V171.36Z" fill="#4A71F0"/>
<path d="M1238.54 171.36H1235.41V934.19H1238.54V171.36Z" fill="#4A71F0"/>
<path d="M1307.03 864.1H2.3999V867.26H1307.03V864.1Z" fill="#4A71F0"/>
<path d="M1307.03 794.82H2.3999V797.98H1307.03V794.82Z" fill="#4A71F0"/>
<path d="M1307.03 725.55H2.3999V728.71H1307.03V725.55Z" fill="#4A71F0"/>
<path d="M1307.03 656.28H2.3999V659.44H1307.03V656.28Z" fill="#4A71F0"/>
<path d="M1307.03 587.01H2.3999V590.17H1307.03V587.01Z" fill="#4A71F0"/>
<path d="M1307.03 517.73H2.3999V520.89H1307.03V517.73Z" fill="#4A71F0"/>
<path d="M1307.03 448.45H2.3999V451.61H1307.03V448.45Z" fill="#4A71F0"/>
<path d="M1307.03 379.18H2.3999V382.34H1307.03V379.18Z" fill="#4A71F0"/>
</g>
</g>
<path d="M549.18 643.24H644.69V547.73H549.18V643.24Z" fill="#E3F5F9"/>
<path d="M457.82 556.08H553.33V460.57H457.82V556.08Z" fill="#EFF7F9"/>
<path d="M266.15 283.88H361.66V188.37H266.15V283.88Z" fill="#E0F4F9"/>
<path d="M269.06 97.01H361.66V1.5H269.06V97.01Z" fill="url(#paint0_linear_465_5721)"/>
<path d="M84.27 187.03H269.8V1.5H84.27V187.03Z" stroke="white" stroke-width="3" stroke-miterlimit="10"/>
<path d="M452.93 464.31H638.46V278.78H452.93V464.31Z" stroke="white" stroke-width="3" stroke-miterlimit="10"/>
<path d="M1206.13 534.72H1301.64V439.21H1206.13V534.72Z" stroke="white" stroke-width="4" stroke-miterlimit="10"/>
<path d="M174.81 466.56H270.32V371.05H174.81V466.56Z" fill="#EDF9FC"/>
<path d="M269.46 649.26H454.24V464.48H269.46V649.26Z" stroke="url(#paint1_linear_465_5721)" stroke-width="7" stroke-miterlimit="10"/>
<path d="M88.8599 556.68H361.66V283.88H88.8599V556.68Z" stroke="url(#paint2_linear_465_5721)" stroke-width="5" stroke-miterlimit="10"/>
<path d="M1069.73 356H1342.53V83.2H1069.73V356Z" stroke="url(#paint3_linear_465_5721)" stroke-width="5" stroke-miterlimit="10"/>
<path d="M268.24 97.01H175.85V189.4H268.24V97.01Z" stroke="url(#paint4_linear_465_5721)" stroke-width="1.5" stroke-miterlimit="10"/>
<path d="M1206.13 151.14H1301.64V55.6299H1206.13V151.14Z" fill="#E3F5F9"/>
<path d="M1110.62 246.64H1206.13V151.13H1110.62V246.64Z" fill="#EDF9FC"/>
<path d="M1206.13 439.21H1398.7V246.64H1206.13V439.21Z" fill="#EDF9FC"/>
<path d="M1206.13 439.21H1110.62V534.72H1206.13V439.21Z" fill="url(#paint5_linear_465_5721)"/>
<defs>
<linearGradient id="paint0_linear_465_5721" x1="269.06" y1="49.25" x2="361.66" y2="49.25" gradientUnits="userSpaceOnUse">
<stop stop-color="#21D4FD" stop-opacity="0.2"/>
<stop offset="1" stop-color="#00B0CB" stop-opacity="0.4"/>
</linearGradient>
<linearGradient id="paint1_linear_465_5721" x1="265.96" y1="556.87" x2="457.74" y2="556.87" gradientUnits="userSpaceOnUse">
<stop stop-color="#21D4FD" stop-opacity="0.2"/>
<stop offset="1" stop-color="#00B0CB" stop-opacity="0.4"/>
</linearGradient>
<linearGradient id="paint2_linear_465_5721" x1="86.3599" y1="420.28" x2="364.16" y2="420.28" gradientUnits="userSpaceOnUse">
<stop stop-color="#21D4FD" stop-opacity="0.2"/>
<stop offset="1" stop-color="#00B0CB" stop-opacity="0.4"/>
</linearGradient>
<linearGradient id="paint3_linear_465_5721" x1="1067.23" y1="219.59" x2="1345.03" y2="219.59" gradientUnits="userSpaceOnUse">
<stop stop-color="#21D4FD" stop-opacity="0.2"/>
<stop offset="1" stop-color="#00B0CB" stop-opacity="0.4"/>
</linearGradient>
<linearGradient id="paint4_linear_465_5721" x1="268.99" y1="143.2" x2="175.1" y2="143.2" gradientUnits="userSpaceOnUse">
<stop stop-color="#21D4FD" stop-opacity="0.2"/>
<stop offset="1" stop-color="#00B0CB" stop-opacity="0.4"/>
</linearGradient>
<linearGradient id="paint5_linear_465_5721" x1="1206.13" y1="486.96" x2="1110.62" y2="486.96" gradientUnits="userSpaceOnUse">
<stop stop-color="#21D4FD" stop-opacity="0.2"/>
<stop offset="1" stop-color="#00B0CB" stop-opacity="0.4"/>
</linearGradient>
</defs>
</svg>
