<svg width="763" height="1443" viewBox="0 0 763 1443" fill="none" xmlns="http://www.w3.org/2000/svg">
<mask id="mask0_465_5722" style="mask-type:luminance" maskUnits="userSpaceOnUse" x="351" y="0" width="558" height="1443">
<path d="M578.128 1442.63L703.208 1442.63C699.918 1381.34 697.148 1236.38 712.308 1146.84C731.258 1034.92 762.078 1003.37 820.188 1005.89C863.328 1007.77 889.928 961.978 899.798 933.848C901.108 930.108 904.668 927.628 908.628 927.628L908.628 343.628L908.538 343.628C898.888 343.628 889.498 340.638 881.508 335.218C854.038 316.588 776.768 343.858 696.048 291.808C638.558 254.748 647.348 272.588 601.798 198.478C565.358 139.198 723.598 43.2081 731.498 2.62809C593.428 2.62809 393.448 -24.9019 351.588 106.658L379.458 259.848C379.458 260.248 451.758 494.368 451.888 494.738C458.828 516.188 599.838 534.578 606.198 665.728C608.118 705.308 590.448 758.248 590.448 816.438C590.448 1021.72 522.648 958.118 560.148 1091.12C590.148 1197.52 584.648 1369.79 578.148 1442.62L578.128 1442.63Z" fill="white"/>
</mask>
<g mask="url(#mask0_465_5722)">
<g opacity="0.1">
<path d="M171.628 74.2582L171.628 71.1382L934.458 71.1382L934.458 74.2581L171.628 74.2582Z" fill="#4A71F0"/>
<path d="M171.628 142.748L171.628 139.628L934.458 139.628L934.458 142.748L171.628 142.748Z" fill="#4A71F0"/>
<path d="M171.628 211.248L171.628 208.128L934.458 208.128L934.458 211.248L171.628 211.248Z" fill="#4A71F0"/>
<path d="M171.628 279.748L171.628 276.628L934.458 276.628L934.458 279.748L171.628 279.748Z" fill="#4A71F0"/>
<path d="M171.628 348.248L171.628 345.128L934.458 345.128L934.458 348.248L171.628 348.248Z" fill="#4A71F0"/>
<path d="M171.628 416.758L171.628 413.638L934.458 413.638L934.458 416.758L171.628 416.758Z" fill="#4A71F0"/>
<path d="M171.628 485.248L171.628 482.128L934.458 482.128L934.458 485.248L171.628 485.248Z" fill="#4A71F0"/>
<path d="M171.628 553.758L171.628 550.638L934.458 550.638L934.458 553.758L171.628 553.758Z" fill="#4A71F0"/>
<path d="M171.628 622.248L171.628 619.128L934.458 619.128L934.458 622.248L171.628 622.248Z" fill="#4A71F0"/>
<path d="M171.628 690.758L171.628 687.638L934.458 687.638L934.458 690.758L171.628 690.758Z" fill="#4A71F0"/>
<path d="M171.628 759.258L171.628 756.138L934.458 756.138L934.458 759.258L171.628 759.258Z" fill="#4A71F0"/>
<path d="M171.628 827.758L171.628 824.638L934.458 824.638L934.458 827.758L171.628 827.758Z" fill="#4A71F0"/>
<path d="M171.628 896.258L171.628 893.138L934.458 893.138L934.458 896.258L171.628 896.258Z" fill="#4A71F0"/>
<path d="M171.628 964.758L171.628 961.628L934.458 961.628L934.458 964.758L171.628 964.758Z" fill="#4A71F0"/>
<path d="M171.628 1033.26L171.628 1030.14L934.458 1030.14L934.458 1033.26L171.628 1033.26Z" fill="#4A71F0"/>
<path d="M171.628 1101.77L171.628 1098.64L934.458 1098.64L934.458 1101.77L171.628 1101.77Z" fill="#4A71F0"/>
<path d="M171.628 1170.26L171.628 1167.14L934.458 1167.14L934.458 1170.26L171.628 1170.26Z" fill="#4A71F0"/>
<path d="M171.628 1238.77L171.628 1235.64L934.458 1235.64L934.458 1238.77L171.628 1238.77Z" fill="#4A71F0"/>
<path d="M725.818 1307.26L725.818 2.62817L728.978 2.62817L728.978 1307.26L725.818 1307.26Z" fill="#4A71F0"/>
<path d="M656.548 1307.26L656.548 2.62817L659.708 2.62817L659.708 1307.26L656.548 1307.26Z" fill="#4A71F0"/>
<path d="M587.278 1307.26L587.278 2.62817L590.438 2.62817L590.438 1307.26L587.278 1307.26Z" fill="#4A71F0"/>
<path d="M517.998 1307.26L517.998 2.62817L521.158 2.62817L521.158 1307.26L517.998 1307.26Z" fill="#4A71F0"/>
<path d="M448.718 1307.26L448.718 2.62817L451.878 2.62817L451.878 1307.26L448.718 1307.26Z" fill="#4A71F0"/>
<path d="M379.448 1307.26L379.448 2.62817L382.608 2.62817L382.608 1307.26L379.448 1307.26Z" fill="#4A71F0"/>
</g>
</g>
<path d="M643.508 549.408L643.508 644.918L547.998 644.918L547.998 549.408L643.508 549.408Z" fill="#E3F5F9"/>
<path d="M556.348 458.048L556.348 553.558L460.838 553.558L460.838 458.048L556.348 458.048Z" fill="#EFF7F9"/>
<path d="M284.148 266.378L284.148 361.888L188.638 361.888L188.638 266.378L284.148 266.378Z" fill="#E0F4F9"/>
<path d="M97.2776 269.288L97.2776 361.888L1.76758 361.888L1.76758 269.288L97.2776 269.288Z" fill="url(#paint0_linear_465_5722)"/>
<path d="M187.298 84.4983L187.298 270.028L1.76759 270.028L1.76758 84.4983L187.298 84.4983Z" stroke="white" stroke-width="3" stroke-miterlimit="10"/>
<path d="M464.578 453.158L464.578 638.688L279.048 638.688L279.048 453.158L464.578 453.158Z" stroke="white" stroke-width="3" stroke-miterlimit="10"/>
<path d="M534.988 1206.36L534.988 1301.87L439.478 1301.87L439.478 1206.36L534.988 1206.36Z" stroke="white" stroke-width="4" stroke-miterlimit="10"/>
<path d="M466.827 175.038L466.827 270.548L371.317 270.548L371.317 175.038L466.827 175.038Z" fill="#EDF9FC"/>
<path d="M649.528 269.688L649.528 454.468L464.748 454.468L464.748 269.688L649.528 269.688Z" stroke="url(#paint1_linear_465_5722)" stroke-width="7" stroke-miterlimit="10"/>
<path d="M556.947 89.0884L556.947 361.888L284.147 361.888L284.147 89.0884L556.947 89.0884Z" stroke="url(#paint2_linear_465_5722)" stroke-width="5" stroke-miterlimit="10"/>
<path d="M356.268 1069.96L356.268 1342.76L83.4678 1342.76L83.4678 1069.96L356.268 1069.96Z" stroke="url(#paint3_linear_465_5722)" stroke-width="5" stroke-miterlimit="10"/>
<path d="M97.2773 268.468L97.2773 176.078L189.667 176.078L189.667 268.468L97.2773 268.468Z" stroke="url(#paint4_linear_465_5722)" stroke-width="1.5" stroke-miterlimit="10"/>
<path d="M151.407 1206.36L151.407 1301.87L55.8975 1301.87L55.8975 1206.36L151.407 1206.36Z" fill="#E3F5F9"/>
<path d="M246.907 1110.85L246.907 1206.36L151.397 1206.36L151.397 1110.85L246.907 1110.85Z" fill="#EDF9FC"/>
<path d="M439.477 1206.36L439.477 1398.93L246.907 1398.93L246.907 1206.36L439.477 1206.36Z" fill="#EDF9FC"/>
<path d="M439.478 1206.36L439.478 1110.85L534.988 1110.85L534.988 1206.36L439.478 1206.36Z" fill="url(#paint5_linear_465_5722)"/>
<defs>
<linearGradient id="paint0_linear_465_5722" x1="49.5176" y1="269.288" x2="49.5176" y2="361.888" gradientUnits="userSpaceOnUse">
<stop stop-color="#21D4FD" stop-opacity="0.2"/>
<stop offset="1" stop-color="#00B0CB" stop-opacity="0.4"/>
</linearGradient>
<linearGradient id="paint1_linear_465_5722" x1="557.138" y1="266.188" x2="557.138" y2="457.968" gradientUnits="userSpaceOnUse">
<stop stop-color="#21D4FD" stop-opacity="0.2"/>
<stop offset="1" stop-color="#00B0CB" stop-opacity="0.4"/>
</linearGradient>
<linearGradient id="paint2_linear_465_5722" x1="420.547" y1="86.5884" x2="420.547" y2="364.388" gradientUnits="userSpaceOnUse">
<stop stop-color="#21D4FD" stop-opacity="0.2"/>
<stop offset="1" stop-color="#00B0CB" stop-opacity="0.4"/>
</linearGradient>
<linearGradient id="paint3_linear_465_5722" x1="219.858" y1="1067.46" x2="219.858" y2="1345.26" gradientUnits="userSpaceOnUse">
<stop stop-color="#21D4FD" stop-opacity="0.2"/>
<stop offset="1" stop-color="#00B0CB" stop-opacity="0.4"/>
</linearGradient>
<linearGradient id="paint4_linear_465_5722" x1="143.467" y1="269.218" x2="143.467" y2="175.328" gradientUnits="userSpaceOnUse">
<stop stop-color="#21D4FD" stop-opacity="0.2"/>
<stop offset="1" stop-color="#00B0CB" stop-opacity="0.4"/>
</linearGradient>
<linearGradient id="paint5_linear_465_5722" x1="487.228" y1="1206.36" x2="487.228" y2="1110.85" gradientUnits="userSpaceOnUse">
<stop stop-color="#21D4FD" stop-opacity="0.2"/>
<stop offset="1" stop-color="#00B0CB" stop-opacity="0.4"/>
</linearGradient>
</defs>
</svg>
